<svg id="Calque_1" data-name="Calque 1" xmlns="http://www.w3.org/2000/svg" viewBox="0 0 512 128"><defs><style>.cls-1{fill:#010101;}.cls-2{fill:#1d1d1b;}</style></defs><path class="cls-1" d="M8.07,7.36a3.79,3.79,0,0,0-2,2.4A46.92,46.92,0,0,0,6,14.69c.07,3.85.11,4.26.53,4.81,1,1.32,1.48,1.52,4,1.59l2.35.09.27,3.65c.55,7.59,2.22,12.89,5.52,17.58,2.33,3.32,5.1,5.85,11.24,10.29,2,1.43,4.58,3.37,5.72,4.27,2.33,1.83,6.6,6,6.6,6.41,0,.63-5.17,5.34-8.93,8.14l-6.43,4.79c-9.46,7.07-13.09,14.09-13.81,26.6L13,105.58l-2.37.08c-2.55.07-3.06.27-4,1.59-.44.57-.46.9-.46,5.41,0,5.3,0,5.35,1.52,6.47l.59.46h80l.68-.48c1.47-1.06,1.52-1.21,1.52-6.49,0-4.47,0-4.8-.46-5.37-1-1.32-1.48-1.52-4-1.59l-2.35-.08L83.25,102c-.68-9.24-3-15.21-7.94-20.6-1.89-2-4.47-4.18-9.51-7.81-2.35-1.71-5.21-3.89-6.38-4.86-2-1.71-5.25-5-5.25-5.32s3.21-3.61,5.25-5.33c1.17-1,3.9-3.06,6.08-4.64,5.48-4,6.75-5,9-7.28,5.52-5.55,8-11.62,8.71-21.37l.27-3.63h2c2.45,0,3.28-.28,4.16-1.45l.64-.81V9.32l-.59-.77c-1.24-1.63,2.37-1.5-41.59-1.5C15.88,7.07,8.6,7.12,8.07,7.36Zm68.32,15.2a43.59,43.59,0,0,1-.88,7.59,24.37,24.37,0,0,1-5.24,10.78L69.1,42.25H27.36L26.22,41a24,24,0,0,1-5.08-9.93,43.43,43.43,0,0,1-1.08-8.29V21.13H76.38v1.43ZM50.16,68.22c.64.28,2.13,1.63,4.51,4a61.48,61.48,0,0,0,7.63,6.67c6.12,4.6,8.87,7.42,10.87,11.09L74,91.54H22.48l.46-1c1.92-3.8,5-7,11.2-11.7a73.72,73.72,0,0,0,10-9.11,7.47,7.47,0,0,1,2-1.59A5.26,5.26,0,0,1,50.16,68.22Z"/><path class="cls-2" d="M104.51,101.93l5.91-76a46.84,46.84,0,0,1,7.35-.44,44.63,44.63,0,0,1,7.25.44l11.15,35.9q.89,2.57,2.45,8.92t1.9,8.47h.67a119.63,119.63,0,0,1,4.46-17.39l11-35.9a49.62,49.62,0,0,1,7.36-.44,47.36,47.36,0,0,1,7.25.44l5.91,76a20,20,0,0,1-5.41.67,25.38,25.38,0,0,1-5.18-.45l-2.79-42q-.78-12.6-.89-22.3h-.67L146.54,90.33a31.06,31.06,0,0,1-5.74.45,27.44,27.44,0,0,1-5.52-.45L119.45,37.82h-.67q-.68,19.18-.89,22.3l-2.68,42a27.47,27.47,0,0,1-5.35.45A19,19,0,0,1,104.51,101.93Z"/><path class="cls-2" d="M232.28,101.54V25.39A28.3,28.3,0,0,1,237.8,25a30.14,30.14,0,0,1,5.63.44v76.15a30.14,30.14,0,0,1-5.63.44A28.3,28.3,0,0,1,232.28,101.54Z"/><path class="cls-2" d="M306.53,63.63V90.05q0,6.69,1.67,9.93a10.05,10.05,0,0,1-6.69,2.34q-5.79,0-5.79-6.92v-29q0-6-1.51-8.53c-1-1.67-2.79-2.51-5.35-2.51a17.87,17.87,0,0,0-7.92,2,24.07,24.07,0,0,0-7.07,5.24v38.91a25,25,0,0,1-5.3.44,28.3,28.3,0,0,1-5.52-.44V46.8l.78-.67h4c3.8,0,5.8,2.34,6,7q8.36-7.57,17.95-7.58,7.46,0,11.09,5T306.53,63.63Z"/><path class="cls-2" d="M326.37,101.54V54.38l-9.58.11a22.85,22.85,0,0,1-.45-3.9,26.87,26.87,0,0,1,.45-4.13l9.14.11a86.32,86.32,0,0,1-.78-10.36,17.19,17.19,0,0,1,4.51-12.27q4.51-4.78,12.21-4.79A38.06,38.06,0,0,1,356,21.71,10.33,10.33,0,0,1,353.58,29a35.17,35.17,0,0,0-9.7-1.67,7.91,7.91,0,0,0-6.25,2.51,10,10,0,0,0-2.22,6.91,63.29,63.29,0,0,0,.89,10l15.83-.23a27.91,27.91,0,0,1,.44,4.13,23.71,23.71,0,0,1-.44,3.9L337,54.38v47.16a26.62,26.62,0,0,1-5.24.44A28.4,28.4,0,0,1,326.37,101.54Z"/><path class="cls-2" d="M396.94,51.26q7.81,7.91,7.81,22.8t-7.81,22.79Q390.82,103,380.89,103t-16.05-6.14Q357,88.95,357,74.06t7.81-22.8q6.12-6.13,16.05-6.14T396.94,51.26ZM368.18,74.11q0,20.52,12.71,20.51T393.6,74.11A42.9,42.9,0,0,0,392.54,64a16.27,16.27,0,0,0-4-7.47,10.89,10.89,0,0,0-15.28,0,16.27,16.27,0,0,0-4,7.47A42.9,42.9,0,0,0,368.18,74.11Z"/><path class="cls-2" d="M413.44,97.41a11.28,11.28,0,0,1,1.18-4.12,10.14,10.14,0,0,1,2.5-3.46q9.15,5,14.78,5t8.41-2.07a6.59,6.59,0,0,0,2.9-5.29q0-5.13-7.25-7.92l-6.24-2.45q-14.27-5.36-14.27-15.72A14.39,14.39,0,0,1,421,49.53q5.52-4.41,14.49-4.41A41.34,41.34,0,0,1,452.91,49a10.64,10.64,0,0,1-.83,4.46,9.05,9.05,0,0,1-2.4,3.56,37.5,37.5,0,0,0-14.83-3.56,9.6,9.6,0,0,0-6.13,1.84A5.65,5.65,0,0,0,426.38,60a5.75,5.75,0,0,0,1.72,4.41,17.4,17.4,0,0,0,5.52,3.06l6.69,2.45q14.06,5.47,14.05,16.73a14.25,14.25,0,0,1-5.85,11.93Q442.65,103,432.68,103A36.74,36.74,0,0,1,413.44,97.41Z"/><path class="cls-2" d="M191,92a16.57,16.57,0,0,1,1.34-7.3,18.59,18.59,0,0,1,8.86-1.78c3.72,0,6.63.59,8.71,1.78a16.43,16.43,0,0,1,1.34,7.3,16.43,16.43,0,0,1-1.34,7.3c-1.88,1.19-4.74,1.79-8.56,1.79s-6.83-.6-9-1.79A16.57,16.57,0,0,1,191,92Z"/></svg>