<svg xmlns="http://www.w3.org/2000/svg" xmlns:xlink="http://www.w3.org/1999/xlink" height="40" width="39.99999999999977">
  <g opacity="1">
    <g opacity="1">
      <path fill="rgb(224,224,224)" fill-opacity="1" opacity="1" fill-rule="evenodd" d="M16.91458026509559 0.07159192602173192C15.371870397643459 0.22273043651193802 14.027982326951264 0.5210301282689258 12.610456553755391 1.0301282688675144C7.463181148748035 2.883563686984246 3.3026509572900142 7.123396639156866 1.3033873343150537 12.556428358357419C0.65169366715747 14.330317192005623 0.2356406480116682 16.21557124390977 0.06995581737838398 18.184349209505875C-1.1368683772161603e-13 19.00765635875515 -1.1368683772161603e-13 20.884955752212445 0.06995581737838398 21.66848960922746C0.2614138438879567 23.780451426866918 0.6296023564063657 25.438997713035754 1.3402061855668947 27.371979715621016C1.796759941089722 28.6168837625535 2.393225331369544 29.853833151039133 3.0633284241530485 30.955553345928266C6.097201767304738 35.93914686288163 10.964653902798103 39.164760863080495 16.476435935198687 39.844884160286426C17.754050073637565 40.00000000000006 19.337260677466723 40.00000000000006 20.57805596465376 39.844884160286426C24.21575846833564 39.38351397036895 27.544182621502056 37.84428756090291 30.371870397643434 35.314706174803675C30.87628865979366 34.86129064333306 32.06553755522812 33.61240926717715 32.25331369661251 33.33797355076072C32.378497790868764 33.151039077259675 32.42268041237097 32.99194590832262 32.334315169366555 33.04762851745059C32.28276877761398 33.075469822014576 32.65095729013239 32.64591826588452 32.74668630338717 32.56239435219256C32.776141384388644 32.53455304762858 32.79455081001457 32.50671174306459 32.783505154639016 32.49477975539431C32.77245949926346 32.486825096947456 32.3011782032399 32.828875410162134 31.73416789396155 33.25047230784534C30.585419734904114 34.10957542010546 30.191458026509416 34.38003380729845 29.488217967599255 34.7777667296411C25.857879234167743 36.826091279705736 21.56848306332828 37.19200556826097 17.65832106038278 35.784031023168C15.427098674521218 34.98061052003585 13.508836524300309 33.68797852242225 11.796759941089707 31.834543104305517C9.304123711340079 29.137913890822368 7.790868924889419 25.685592124888196 7.433726067746562 21.879288058069065C7.360088365242881 21.119618176394606 7.363770250368064 19.488913194789752 7.433726067746562 18.70935666699817C7.890279823269389 13.809287063736758 10.265095729013126 9.481952868648758 14.005891016200161 6.737595704484498C16.163475699558035 5.158596002784186 18.53460972017659 4.235855622949245 21.148748159057295 3.9653972357562495C22.01030927835037 3.8778959928408625 23.597201767304714 3.9057372974048548 24.407216494845212 4.025057174107644C26.82621502209116 4.379039474992595 28.935935198821642 5.218255941135581 30.88733431516921 6.602366510887997C31.620029455080843 7.123396639156866 31.94035346097186 7.393855026349861 32.83873343151677 8.241026150939703C33.100147275404844 8.491597892015566 33.38365243004402 8.738192303868008 33.46465390279807 8.793874912995982C33.54565537555212 8.85353485134738 33.72238586156096 9.000696032614158 33.85861561119277 9.127970567763803C33.991163475699395 9.255245102913449 34.11266568483047 9.35865566272254 34.12371134020602 9.35865566272254C34.134756995581576 9.35865566272254 34.05743740795271 9.227403798349467 33.95066273932237 9.068310629412405C33.84020618556685 8.913194789698771 33.72606774668614 8.718305657750875 33.692930780559486 8.642736402505776C33.61561119293062 8.467733916675009 33.107511045655215 7.735905339564539 32.64359351988202 7.131351297603715C32.18703976435919 6.534751914089746 30.931516936671418 5.182459978124747 30.371870397643434 4.6813164959730145C29.189985272459346 3.627324251764996 28.151693667157428 2.8954956746545264 26.74521354933711 2.139803122203496C24.09793814432975 0.707964601769973 21.284977908689108 5.684341886080802e-14 18.313696612665545 0.015909316893761627C17.838733431516797 0.019886646117186046 17.209131075110317 0.043750621457746774 16.91458026509559 0.07159192602173192L16.91458026509559 0.07159192602173192Z"/>
    </g>
    <g opacity="1">
      <path fill="rgb(224,224,224)" fill-opacity="1" opacity="1" fill-rule="evenodd" d="M32.772459499263064 13.3797355076066C32.698821796759376 13.60644327334191 32.536818851251276 14.131450730834205 32.411634756995014 14.549070299293984C32.1575846833573 15.400218753107248 31.793078055964067 16.61330416625232 31.458026509572306 17.72297901958831C31.30338733431457 18.23605448941032 31.211340206184964 18.47867157203934 31.163475699557573 18.506512876603324C31.11929307805536 18.530376851943885 30.14359351988155 18.54628616883759 28.460972017672376 18.54628616883759C27.010309278349805 18.54628616883759 25.824742268040495 18.550263498061014 25.824742268040495 18.558218156507866C25.824742268040495 18.562195485731294 25.93519882179602 18.697424679327796 26.07511045655302 18.852540519041426C26.248159057436677 19.051406980212747 26.730486008835808 19.45709456100225 27.702503681884433 20.22074177190013C29.90795287186976 21.950879984090648 29.988954344623814 22.01451725166547 30.047864506626762 22.113950482251134C30.114138438880076 22.221338371283647 30.128865979380812 22.153723774485396 29.653902798232053 23.736700805409132C28.67820324005824 26.982201451725135 28.512518409424953 27.539027543004842 28.512518409424953 27.582778164462532C28.512518409424953 27.60664213980309 28.55301914580198 27.594710152132812 28.60456553755456 27.558914189121975C28.656111929307137 27.523118226111134 28.696612665684164 27.511186238440857 28.696612665684164 27.535050213781414C28.696612665684164 27.554936859898547 28.74447717231156 27.57482350601568 28.803387334314504 27.57482350601568C28.928571428570766 27.57482350601568 29.057437407952214 27.475390275430016 31.233431516936072 25.76911603858006C32.09131075110399 25.09297007059756 32.84241531664156 24.520234662424148 32.89764359351933 24.49637068708359C32.97864506627338 24.464552053296178 33.03019145802595 24.468529382519606 33.12592047128074 24.520234662424148C33.19587628865924 24.556030625434985 34.039027982326424 25.2043352888535 35.00368188512468 25.96002784130453C36.8151693667153 27.37993437406778 37.03976435935154 27.55095953067512 37.205449189984826 27.590732822909384C37.29381443298925 27.610619469026517 37.3048600883648 27.598687481356237 37.326951399115906 27.475390275430016C37.36008836524256 27.2924331311524 37.3748159057433 27.352093069503795 36.57216494845315 24.675350502137782C36.18924889543399 23.394650492194458 35.87628865979333 22.328726260316163 35.87628865979333 22.300884955752178C35.87628865979333 22.273043651188193 35.89469808541925 22.205429054389942 35.91678939617036 22.14974644526197C35.957290132547385 22.058267873123164 36.19293078055917 21.863378741175264 38.759204712812554 19.842895495674618C39.359351988217576 19.36561598886344 39.87113402061818 18.940041761956806 39.89322533136929 18.896291140499116C39.91531664212039 18.852540519041426 39.92268041237076 18.78094859301975 39.91531664212039 18.737197971562058C39.90427098674484 18.693447350104368 39.91531664212039 18.653674057870102 39.94845360824705 18.637764740976394C39.97790868924852 18.625832753306117 39.99999999999963 18.60196877796556 39.99999999999963 18.582082131848424C39.99999999999963 18.562195485731294 38.91384388807029 18.54628616883759 37.43004418262106 18.54628616883759C35.20986745213499 18.54628616883759 34.852724594992125 18.538331510390734 34.782768777613626 18.48662623048619C34.6980854197344 18.42298896291137 34.62444771723071 18.19230386795263 33.66715758468282 15.018395147658307C33.2989690721644 13.7854230883961 33.16642120765777 13.40359948294716 33.10382916052964 13.34791687381919C33.055964653902244 13.308143581584924 32.993372606774116 13.208710350999262 32.963917525772644 13.12120910808388L32.90500736376969 12.966093268370248L32.772459499263064 13.3797355076066L32.772459499263064 13.3797355076066Z"/>
    </g>
  </g>
</svg>