<svg xmlns="http://www.w3.org/2000/svg" xmlns:xlink="http://www.w3.org/1999/xlink" height="40.000000000000625" width="39.99999999999932">
  <g opacity="1">
    <g opacity="1">
      <path fill="rgb(224,224,224)" fill-opacity="1" opacity="1" fill-rule="evenodd" d="M19.092609915808335 6.350904799370614C18.574992204551677 9.8410700236035 18.157156220766183 12.701809598741184 18.160274399749657 12.708103855232135C18.16339257873313 12.711250983477612 18.341128780791138 12.679779701022852 18.553164951667362 12.638867033831664C19.522918615527725 12.440597954366677 20.57062675397494 12.440597954366677 21.540380417835305 12.638867033831664C21.752416588711526 12.679779701022852 21.930152790769533 12.711250983477612 21.933270969753007 12.708103855232135C21.945743685686903 12.692368214004755 20.062363579668702 4.440892098500626e-14 20.046772684751332 4.440892098500626e-14C20.03741814780091 4.440892098500626e-14 19.60710944808152 2.8575924468922533 19.092609915808335 6.350904799370614L19.092609915808335 6.350904799370614Z"/>
    </g>
    <g opacity="1">
      <path fill="rgb(224,224,224)" fill-opacity="1" opacity="1" fill-rule="evenodd" d="M5.874649204863845 5.853658536585888C5.949485500467214 5.976396538159452 13.539133146242136 16.176239181747178 13.557842220142978 16.176239181747178C13.567196757093399 16.176239181747178 13.626442157779397 16.09756097561028 13.682569379481926 15.996852871755046C14.14405986903603 15.22265932336795 15.063922669160762 14.2848151062161 15.91830371063255 13.721479150275895L16.236357966946862 13.51376868607448L11.178671655752565 9.76553894571256C8.40037418147752 7.701022816680302 6.061739943872265 5.966955153423024 5.983785469285424 5.910306845004456C5.908949173682055 5.853658536585888 5.859058309946477 5.82848151062208 5.874649204863845 5.853658536585888L5.874649204863845 5.853658536585888Z"/>
    </g>
    <g opacity="1">
      <path fill="rgb(224,224,224)" fill-opacity="1" opacity="1" fill-rule="evenodd" d="M29.03960087308943 9.671125098348277L23.857187402556292 13.513768686074478L24.1752416588706 13.721479150275893C25.035859058309317 14.287962234461576 25.952603679450558 15.22265932336795 26.417212347988126 16.00944138473695C26.47333956969065 16.100708103855755 26.526348612409702 16.176239181747178 26.535703149360124 16.176239181747178C26.55129404427749 16.176239181747178 34.14405986903573 5.979543666404922 34.21577798565562 5.859952793076834C34.228250701589516 5.841070023603979 34.234487059556464 5.822187254131123 34.228250701589516 5.822187254131123C34.22201434362257 5.8253343823765995 31.886498285000837 7.556254917388401 29.03960087308943 9.671125098348277L29.03960087308943 9.671125098348277Z"/>
    </g>
    <g opacity="1">
      <path fill="rgb(224,224,224)" fill-opacity="1" opacity="1" fill-rule="evenodd" d="M19.407545993139614 13.850511408339871C18.231992516370035 13.973249409913436 17.06891175553435 14.45790715971674 16.15216713439309 15.203776553894555C14.939195509821827 16.188827694728545 14.134705332085616 17.601888276947275 13.919550982225934 19.13768686073957C13.860305581539933 19.55625491738788 13.860305581539933 20.440597954366638 13.919550982225934 20.84972462627852C14.10352354225088 22.155782848151063 14.67103211724309 23.323367427222664 15.584658559400879 24.27380015735642C17.458684128468562 26.225019669551543 20.364826941066035 26.738001573564134 22.77517929529119 25.54209284028325C23.470533208605822 25.199055861526364 23.9819145618955 24.821400472069243 24.508886810102556 24.27380015735642C25.422513252260345 23.323367427222664 25.990021827252555 22.155782848151063 26.173994387277503 20.84972462627852C26.2332397879635 20.440597954366638 26.2332397879635 19.55625491738788 26.173994387277503 19.13768686073957C25.887121920797924 17.09520062942564 24.596195821639817 15.339103068450024 22.712815715621716 14.42643587726198C21.71811661989361 13.94492525570415 20.51449953227277 13.734067663257258 19.407545993139614 13.850511408339871L19.407545993139614 13.850511408339871Z"/>
    </g>
    <g opacity="1">
      <path fill="rgb(224,224,224)" fill-opacity="1" opacity="1" fill-rule="evenodd" d="M6.4296850639224346 19.04012588513062C1.0289990645460765 19.83949645948152 -2.2737367544323206e-13 19.99685287175532 0.09354536950398201 20.01888276947365C0.18085438104124424 20.037765538946505 12.737761147489625 21.89142407553186 12.743997505456571 21.885129819040905C12.750233863423519 21.881982690795432 12.72528843155573 21.743509047994486 12.69098846273752 21.583005507475214C12.482070470844786 20.604248623132182 12.482070470844786 19.398898505114882 12.69098846273752 18.426435877262804C12.72528843155573 18.25963808025258 12.750233863423519 18.11801730920616 12.743997505456571 18.114870180960683C12.737761147489623 18.111723052715206 9.89710009354513 18.527143981118037 6.4296850639224346 19.04012588513062L6.4296850639224346 19.04012588513062Z"/>
    </g>
    <g opacity="1">
      <path fill="rgb(224,224,224)" fill-opacity="1" opacity="1" fill-rule="evenodd" d="M27.343311506079544 18.130605822188016C27.343311506079544 18.146341463415396 27.371375116930807 18.287962234461816 27.405675085749017 18.445318646735615C27.61147489865828 19.380015735641994 27.61147489865828 20.607395751377638 27.402556906765543 21.5830055074752C27.368256937947333 21.74350904799448 27.343311506079544 21.88198269079542 27.349547864046492 21.8851298190409C27.368256937947333 21.900865460268278 39.968818210164336 20.02832415421005 39.99064546304865 20.009441384737194C39.999999999999076 19.99685287175529 39.978172747114755 19.98111723052791 39.937636420329596 19.971675845791484C39.89710009354444 19.962234461055054 37.07202993451732 19.543666404406746 33.65762394761368 19.040125885130582C30.246336139693508 18.539732494099898 27.42750233863333 18.121164437451586 27.39943872778207 18.114870180960637C27.368256937947333 18.108575924469683 27.343311506079544 18.114870180960637 27.343311506079544 18.130605822188016L27.343311506079544 18.130605822188016Z"/>
    </g>
    <g opacity="1">
      <path fill="rgb(224,224,224)" fill-opacity="1" opacity="1" fill-rule="evenodd" d="M9.74119114437212 28.940991345397393C7.648893046461349 31.754523996852928 5.915185531650038 34.08654602675064 5.8902400997822495 34.12431156569635C5.830994699096252 34.209284028324205 5.166822575616379 34.69708890637298 11.103835360150075 30.29425649095207L16.236357966947587 26.486231313926115L15.921421889616756 26.2785208497247C15.06392266916152 25.715184893784496 14.15653258497071 24.79307631786003 13.682569379482725 24.00314712824556C13.623323978796726 23.905586152635802 13.570314936077676 23.823760818253426 13.560960399127255 23.823760818253426C13.551605862176833 23.823760818253426 11.833489242282893 26.127458693941854 9.74119114437212 28.940991345397393L9.74119114437212 28.940991345397393Z"/>
    </g>
    <g opacity="1">
      <path fill="rgb(224,224,224)" fill-opacity="1" opacity="1" fill-rule="evenodd" d="M26.41097599002118 24.003147128246038C25.937012784533188 24.79307631786051 25.02962270034237 25.71518489378498 24.172123479887127 26.27852084972518L23.857187402556292 26.486231313926595L28.911755534767014 30.237608182533975C31.693171188025474 32.29897718332075 34.02868724664721 34.02989771833254 34.10352354225057 34.083398898505635C34.17524165887046 34.1400472069242 34.234487059556464 34.177812745869915 34.234487059556464 34.16837136113349C34.234487059556464 34.14319433516968 26.560648581227913 23.83949645948129 26.538821328343595 23.833202202990336C26.526348612409702 23.83005507474486 26.470221390707177 23.905586152636282 26.41097599002118 24.003147128246038L26.41097599002118 24.003147128246038Z"/>
    </g>
    <g opacity="1">
      <path fill="rgb(224,224,224)" fill-opacity="1" opacity="1" fill-rule="evenodd" d="M18.150919862799622 27.32336742722337C18.160274399750044 27.3453973249417 18.58434674150248 30.206136900079382 19.098846273775656 33.68056648308488C19.61022762706536 37.15814319433586 20.03741814780127 40.00000000000068 20.04677268475169 40.00000000000068C20.062363579669057 40.00000000000068 21.94574368568723 27.30763178599599 21.933270969753334 27.29189614476861C21.93015279076986 27.288749016523134 21.752416588711853 27.317073170732417 21.540380417835635 27.36113296616908C21.004053632678144 27.47128245476074 20.62987215466129 27.50590086546098 20.04677268475169 27.50590086546098C19.46367321484209 27.50590086546098 19.089491736825234 27.47128245476074 18.55940130963469 27.36113296616908C18.113501714997938 27.273013375295754 18.135328967882256 27.273013375295754 18.150919862799622 27.32336742722337L18.150919862799622 27.32336742722337Z"/>
    </g>
  </g>
</svg>